<?xml version="1.0" encoding="UTF-8"?>
<svg version="1.1" xmlns="http://www.w3.org/2000/svg" width="100" height="100">
<path d="M0 0 C1.32 0 2.64 0 4 0 C4 4.29 4 8.58 4 13 C2.4325 13.66 0.865 14.32 -0.75 15 C-5.30227987 17.28258793 -7.57889285 19.21489896 -9.4453125 23.9609375 C-11.02409706 29.7646385 -10.08477536 34.11541184 -7.2734375 39.26953125 C-4.44334962 43.11532552 -0.426258 43.8934355 4 45 C4 49.62 4 54.24 4 59 C0 58 0 58 -1 57 C-1.04063832 55.33382885 -1.042721 53.66611905 -1 52 C-7.68531992 50.82712428 -7.68531992 50.82712428 -14 53 C-16.5625 50.75 -16.5625 50.75 -19 48 C-18.875 45.9375 -18.875 45.9375 -18 44 C-16.9190515 40.64905965 -17.14626635 38.41493459 -18 35 C-18.969375 34.855625 -19.93875 34.71125 -20.9375 34.5625 C-24 34 -24 34 -25 33 C-25.14115161 30.32941149 -25.04247107 27.67567762 -25 25 C-22.69 24.34 -20.38 23.68 -18 23 C-17.32326553 19.59679066 -17.32326553 19.59679066 -17 16 C-17.66 15.34 -18.32 14.68 -19 14 C-18.81155428 11.17331426 -17.94576361 9.93080185 -16.1875 7.6875 C-14 6 -14 6 -11.9375 6.1875 C-11.298125 6.455625 -10.65875 6.72375 -10 7 C-7.09997588 8.25127376 -7.09997588 8.25127376 -4.4375 7.4375 C-1.69604138 6.14787485 -1.69604138 6.14787485 -0.6875 2.875 C-0.460625 1.92625 -0.23375 0.9775 0 0 Z " fill="#2A4C74" transform="translate(44,20)"/>
<path d="M0 0 C0.70213623 0.27577881 1.40427246 0.55155762 2.12768555 0.83569336 C2.80126953 2.61279297 2.80126953 2.61279297 3.12768555 4.83569336 C2.06542969 6.59179688 2.06542969 6.59179688 0.3503418 8.40209961 C-0.29918457 9.09706543 -0.94871094 9.79203125 -1.61791992 10.50805664 C-2.73384521 11.66023682 -2.73384521 11.66023682 -3.87231445 12.83569336 C-4.68200684 13.69275879 -5.49169922 14.54982422 -6.32592773 15.43286133 C-9.00126927 18.24119498 -11.71334261 21.00958754 -14.43481445 23.77319336 C-14.895896 24.25312744 -15.35697754 24.73306152 -15.83203125 25.22753906 C-17.1885561 26.63886818 -18.5634493 28.03246924 -19.9387207 29.42553711 C-21.14443726 30.66098267 -21.14443726 30.66098267 -22.37451172 31.92138672 C-25.31220653 34.172825 -27.19019061 34.7221092 -30.87231445 34.83569336 C-33.22631896 33.14992239 -34.87829915 31.7252872 -36.80981445 29.64819336 C-37.56875 28.90472656 -37.56875 28.90472656 -38.34301758 28.14624023 C-39.7746582 26.66772461 -39.7746582 26.66772461 -41.87231445 23.83569336 C-41.6887207 21.47241211 -41.6887207 21.47241211 -40.87231445 19.83569336 C-38.87231445 18.96069336 -38.87231445 18.96069336 -35.87231445 18.83569336 C-33.8293457 20.13598633 -33.8293457 20.13598633 -31.68481445 21.82788086 C-30.61166992 22.66488525 -30.61166992 22.66488525 -29.5168457 23.51879883 C-28.97415039 23.95337402 -28.43145508 24.38794922 -27.87231445 24.83569336 C-27.14117432 24.07313232 -26.41003418 23.31057129 -25.65673828 22.52490234 C-22.94175367 19.70136915 -20.20699986 16.89769922 -17.46582031 14.09960938 C-16.28193934 12.88554309 -15.10349761 11.66614809 -13.93066406 10.44140625 C-12.24423621 8.68224451 -10.53920521 6.94314437 -8.8293457 5.20678711 C-8.30830765 4.65478134 -7.78726959 4.10277557 -7.2504425 3.53404236 C-3.51851036 -0.20127135 -3.51851036 -0.20127135 0 0 Z " fill="#F57237" transform="translate(77.872314453125,26.164306640625)"/>
<path d="M0 0 C1.051875 0.268125 2.10375 0.53625 3.1875 0.8125 C4.3125 7.4375 4.3125 7.4375 3.1875 10.8125 C0.125 12 0.125 12 -2.8125 12.8125 C-3.73720553 17.52849818 -4.04173777 20.48515609 -1.8125 24.8125 C-4.01702813 26.75613723 -6.18072927 28.48600266 -8.8125 29.8125 C-11.9375 29.0625 -11.9375 29.0625 -14.8125 27.8125 C-17.58997682 28.09889786 -17.58997682 28.09889786 -19.8125 28.8125 C-20.1425 31.1225 -20.4725 33.4325 -20.8125 35.8125 C-22.1325 35.8125 -23.4525 35.8125 -24.8125 35.8125 C-24.8125 31.1925 -24.8125 26.5725 -24.8125 21.8125 C-23.575 21.4 -22.3375 20.9875 -21.0625 20.5625 C-17.42099688 19.15846975 -15.14357724 18.05935758 -12.8125 14.8125 C-12.13919024 13.17771499 -11.49632885 11.53023971 -10.875 9.875 C-8.66266211 4.07833174 -6.86021602 -0.33738767 0 0 Z " fill="#F27139" transform="translate(74.8125,43.1875)"/>
<path d="M0 0 C1.32 0 2.64 0 4 0 C4.309375 1.423125 4.309375 1.423125 4.625 2.875 C5.71072163 6.20539251 5.71072163 6.20539251 8.75 7.5 C12.4810764 8.07401175 14.56503213 7.47212909 18 6 C18.66 7.32 19.32 8.64 20 10 C19.50628906 10.40992188 19.01257813 10.81984375 18.50390625 11.2421875 C17.54291016 12.05042969 17.54291016 12.05042969 16.5625 12.875 C15.92441406 13.40867187 15.28632812 13.94234375 14.62890625 14.4921875 C12.89194996 15.9222757 12.89194996 15.9222757 12 18 C7.96479403 16.41037341 3.98188718 14.71767682 0 13 C0 8.71 0 4.42 0 0 Z " fill="#F2753F" transform="translate(50,20)"/>
<path d="M0 0 C1.0725 0.2475 2.145 0.495 3.25 0.75 C4.375 7.375 4.375 7.375 3.25 10.75 C2.92 10.75 2.59 10.75 2.25 10.75 C2.25 7.78 2.25 4.81 2.25 1.75 C-3.27289491 3.98545746 -6.19984265 7.15493818 -9.75 11.75 C-10.75 8.75 -10.75 8.75 -9.5625 6.3125 C-4.86801242 -0.32453416 -4.86801242 -0.32453416 0 0 Z " fill="#F3885C" transform="translate(74.75,43.25)"/>
<path d="M0 0 C0 3.60773898 -1.17725722 4.84854626 -3.48828125 7.50390625 C-5.77412701 9.76612569 -8.25180284 11.33829939 -11 13 C-11 10 -11 10 -9.609375 8.53515625 C-8.99578125 8.04917969 -8.3821875 7.56320313 -7.75 7.0625 C-5.00826998 4.83241128 -2.45357676 2.55171984 0 0 Z " fill="#F67D49" transform="translate(60,41)"/>
<path d="M0 0 C0.66 0 1.32 0 2 0 C1.62492618 2.71928517 1.15781339 3.84218661 -0.8125 5.8125 C-3 7 -3 7 -5.25 6.6875 C-5.8275 6.460625 -6.405 6.23375 -7 6 C-6.401875 5.7525 -5.80375 5.505 -5.1875 5.25 C-2.71222841 3.83555909 -1.66569196 2.27139812 0 0 Z " fill="#F67943" transform="translate(54,54)"/>
<path d="M0 0 C2.125 0.9375 2.125 0.9375 4 2 C2.25 5.875 2.25 5.875 0 7 C-0.66 5.02 -1.32 3.04 -2 1 C-1.34 0.67 -0.68 0.34 0 0 Z " fill="#F38554" transform="translate(66,26)"/>
</svg>
